<?xml version="1.0" encoding="UTF-8"?>
<svg width="1305px" height="833px" viewBox="0 0 1305 833" version="1.1" xmlns="http://www.w3.org/2000/svg" xmlns:xlink="http://www.w3.org/1999/xlink">
    <!-- Generator: Sketch 53 (72520) - https://sketchapp.com -->
    <title>Placeholder 2</title>
    <desc>Created with Sketch.</desc>
    <defs>
        <linearGradient x1="100%" y1="50%" x2="-2.22044605e-14%" y2="50%" id="linearGradient-1">
            <stop stop-color="#E2E2E2" offset="0%"></stop>
            <stop stop-color="#E6E6E6" offset="100%"></stop>
        </linearGradient>
        <rect id="path-2" x="0" y="0" width="1305" height="833"></rect>
        <linearGradient x1="-2.22044605e-14%" y1="50%" x2="100%" y2="50%" id="linearGradient-4">
            <stop stop-color="#DCDCDC" offset="0%"></stop>
            <stop stop-color="#E3E0E0" offset="100%"></stop>
        </linearGradient>
        <linearGradient x1="-2.22044605e-14%" y1="50%" x2="100%" y2="50%" id="linearGradient-5">
            <stop stop-color="#D9D9D9" offset="0%"></stop>
            <stop stop-color="#D9D9D9" offset="100%"></stop>
        </linearGradient>
        <linearGradient x1="-2.22044605e-14%" y1="50%" x2="100%" y2="50%" id="linearGradient-6">
            <stop stop-color="#F4F4F4" offset="0%"></stop>
            <stop stop-color="#E3E0E0" offset="100%"></stop>
        </linearGradient>
        <linearGradient x1="-2.22044605e-14%" y1="50%" x2="100%" y2="50%" id="linearGradient-7">
            <stop stop-color="#EBEBEB" offset="0%"></stop>
            <stop stop-color="#DDDDDD" offset="100%"></stop>
        </linearGradient>
        <linearGradient x1="-2.22044605e-14%" y1="50%" x2="100%" y2="50%" id="linearGradient-8">
            <stop stop-color="#D9D9D9" offset="0%"></stop>
            <stop stop-color="#D9D9D9" offset="100%"></stop>
        </linearGradient>
    </defs>
    <g id="Wireframes-+-Mobile" stroke="none" stroke-width="1" fill="none" fill-rule="evenodd">
        <g id="Placeholder-2" transform="translate(0.000000, -1030.000000)">
            <g transform="translate(0.000000, 1030.000000)">
                <mask id="mask-3" fill="white">
                    <use xlink:href="#path-2"></use>
                </mask>
                <use id="Rectangle-Copy-33" fill="url(#linearGradient-1)" opacity="0.5" xlink:href="#path-2"></use>
                <ellipse id="Oval" fill="url(#linearGradient-4)" opacity="0.400000006" mask="url(#mask-3)" cx="539.094727" cy="544.827027" rx="380.25" ry="380.478378"></ellipse>
                <ellipse id="Oval" fill="url(#linearGradient-5)" opacity="0.698084113" mask="url(#mask-3)" cx="539.094727" cy="544.827027" rx="184.5" ry="184.610811"></ellipse>
                <ellipse id="Oval" fill="url(#linearGradient-6)" opacity="0.698084113" mask="url(#mask-3)" cx="539.094727" cy="544.827027" rx="90" ry="90.0540541"></ellipse>
                <path d="M-328.5,565.335431 C-134.402344,532.15145 33.6005859,515.559459 175.508789,515.559459 C388.371094,515.559459 539.165039,556.118961 790.664062,544.827027 C897.827766,540.015535 1115.17553,504.760595 1209.39258,515.559459 C1293.99117,525.255887 1374.20015,551.055553 1450.01953,592.958457 L1450.01953,835.251351 L-328.5,822.051045 L-328.5,565.335431 Z" id="Path-21" fill="url(#linearGradient-7)" mask="url(#mask-3)"></path>
                <path d="M-270,635.161357 C13.4882813,678.209856 226.186523,699.734105 368.094727,699.734105 C580.957031,699.734105 777.84082,646.453291 1029.33984,635.161357 C1136.50355,630.349865 1414.30248,688.93524 1508.51953,699.734105 C1593.11812,709.430532 1662.56637,709.430532 1716.86426,699.734105 L1716.86426,942.027 L-270,891.876972 L-270,635.161357 Z" id="Path-21" fill="url(#linearGradient-8)" opacity="0.698084113" mask="url(#mask-3)"></path>
            </g>
        </g>
    </g>
</svg>